<mxfile host="app.diagrams.net" modified="2024-05-12T16:26:07.893Z" agent="Mozilla/5.0 (Windows NT 10.0; Win64; x64; rv:125.0) Gecko/20100101 Firefox/125.0" etag="pz4TLKzoinRFfHiery5p" version="24.4.0" type="github">
  <diagram name="Page-1" id="2YBvvXClWsGukQMizWep">
    <mxGraphModel dx="1562" dy="826" grid="1" gridSize="10" guides="1" tooltips="1" connect="1" arrows="1" fold="1" page="1" pageScale="1" pageWidth="850" pageHeight="1100" math="0" shadow="0">
      <root>
        <mxCell id="0" />
        <mxCell id="1" parent="0" />
        <mxCell id="aM9ryv3xv72pqoxQDRHE-1" value="User" style="shape=umlLifeline;perimeter=lifelinePerimeter;whiteSpace=wrap;html=1;container=0;dropTarget=0;collapsible=0;recursiveResize=0;outlineConnect=0;portConstraint=eastwest;newEdgeStyle={&quot;edgeStyle&quot;:&quot;elbowEdgeStyle&quot;,&quot;elbow&quot;:&quot;vertical&quot;,&quot;curved&quot;:0,&quot;rounded&quot;:0};" parent="1" vertex="1">
          <mxGeometry x="40" y="40" width="100" height="300" as="geometry" />
        </mxCell>
        <mxCell id="aM9ryv3xv72pqoxQDRHE-2" value="" style="html=1;points=[];perimeter=orthogonalPerimeter;outlineConnect=0;targetShapes=umlLifeline;portConstraint=eastwest;newEdgeStyle={&quot;edgeStyle&quot;:&quot;elbowEdgeStyle&quot;,&quot;elbow&quot;:&quot;vertical&quot;,&quot;curved&quot;:0,&quot;rounded&quot;:0};" parent="aM9ryv3xv72pqoxQDRHE-1" vertex="1">
          <mxGeometry x="45" y="70" width="10" height="190" as="geometry" />
        </mxCell>
        <mxCell id="aM9ryv3xv72pqoxQDRHE-5" value="Partner" style="shape=umlLifeline;perimeter=lifelinePerimeter;whiteSpace=wrap;html=1;container=0;dropTarget=0;collapsible=0;recursiveResize=0;outlineConnect=0;portConstraint=eastwest;newEdgeStyle={&quot;edgeStyle&quot;:&quot;elbowEdgeStyle&quot;,&quot;elbow&quot;:&quot;vertical&quot;,&quot;curved&quot;:0,&quot;rounded&quot;:0};" parent="1" vertex="1">
          <mxGeometry x="220" y="40" width="100" height="300" as="geometry" />
        </mxCell>
        <mxCell id="aM9ryv3xv72pqoxQDRHE-6" value="" style="html=1;points=[];perimeter=orthogonalPerimeter;outlineConnect=0;targetShapes=umlLifeline;portConstraint=eastwest;newEdgeStyle={&quot;edgeStyle&quot;:&quot;elbowEdgeStyle&quot;,&quot;elbow&quot;:&quot;vertical&quot;,&quot;curved&quot;:0,&quot;rounded&quot;:0};" parent="aM9ryv3xv72pqoxQDRHE-5" vertex="1">
          <mxGeometry x="45" y="80" width="10" height="170" as="geometry" />
        </mxCell>
        <mxCell id="aM9ryv3xv72pqoxQDRHE-7" value="Cần Nạp Tièn" style="html=1;verticalAlign=bottom;endArrow=block;edgeStyle=elbowEdgeStyle;elbow=vertical;curved=0;rounded=0;" parent="1" source="aM9ryv3xv72pqoxQDRHE-2" target="aM9ryv3xv72pqoxQDRHE-6" edge="1">
          <mxGeometry relative="1" as="geometry">
            <mxPoint x="195" y="130" as="sourcePoint" />
            <Array as="points">
              <mxPoint x="180" y="120" />
            </Array>
          </mxGeometry>
        </mxCell>
        <mxCell id="JliSDwymSqfBBgYboHcV-1" value="Perfect Money, WMZ,Tron Wallet" style="shape=umlLifeline;perimeter=lifelinePerimeter;whiteSpace=wrap;html=1;container=0;dropTarget=0;collapsible=0;recursiveResize=0;outlineConnect=0;portConstraint=eastwest;newEdgeStyle={&quot;edgeStyle&quot;:&quot;elbowEdgeStyle&quot;,&quot;elbow&quot;:&quot;vertical&quot;,&quot;curved&quot;:0,&quot;rounded&quot;:0};" parent="1" vertex="1">
          <mxGeometry x="640" y="30" width="100" height="300" as="geometry" />
        </mxCell>
        <mxCell id="JliSDwymSqfBBgYboHcV-2" value="" style="html=1;points=[];perimeter=orthogonalPerimeter;outlineConnect=0;targetShapes=umlLifeline;portConstraint=eastwest;newEdgeStyle={&quot;edgeStyle&quot;:&quot;elbowEdgeStyle&quot;,&quot;elbow&quot;:&quot;vertical&quot;,&quot;curved&quot;:0,&quot;rounded&quot;:0};" parent="JliSDwymSqfBBgYboHcV-1" vertex="1">
          <mxGeometry x="45" y="80" width="10" height="170" as="geometry" />
        </mxCell>
        <mxCell id="XB0kFff-WBzxuI54zyYx-3" style="edgeStyle=orthogonalEdgeStyle;rounded=0;orthogonalLoop=1;jettySize=auto;html=1;entryX=0.5;entryY=0;entryDx=0;entryDy=0;" parent="1" source="XB0kFff-WBzxuI54zyYx-1" target="XB0kFff-WBzxuI54zyYx-2" edge="1">
          <mxGeometry relative="1" as="geometry" />
        </mxCell>
        <mxCell id="XB0kFff-WBzxuI54zyYx-1" value="&lt;div&gt;&amp;nbsp;&lt;br&gt;&lt;/div&gt;&lt;div&gt;Thẻ cào&lt;/div&gt;" style="rounded=0;whiteSpace=wrap;html=1;" parent="1" vertex="1">
          <mxGeometry x="1100" y="1260" width="120" height="60" as="geometry" />
        </mxCell>
        <mxCell id="XB0kFff-WBzxuI54zyYx-2" value="Lưu vào Enque giao dịch ( gửi lại response đã ghi nhận thẻ thành công )" style="rounded=1;whiteSpace=wrap;html=1;" parent="1" vertex="1">
          <mxGeometry x="1100" y="1490" width="120" height="60" as="geometry" />
        </mxCell>
        <mxCell id="XB0kFff-WBzxuI54zyYx-5" value="&lt;h1&gt;Flow Nạp Tiền Vào Hệ Thống ( IN) &lt;br&gt;&lt;/h1&gt;&lt;div&gt;Người dùng sẽ được hiện thị các thông tin nạp (từ CTT)&lt;/div&gt;&lt;div&gt;Khi người dùng thực hiện nạp tiền &amp;gt;&amp;gt; CTT được nhận callback từ các Bên và thực hiện callback ngược lại cho Đối tác&lt;/div&gt;&lt;div&gt;Đối tác thực hiện cộng tiền hoặc các dịch vụ tương ứng cho người dùng theo số tiền đã nạp&lt;br&gt;&lt;/div&gt;" style="text;html=1;strokeColor=none;fillColor=none;spacing=5;spacingTop=-20;whiteSpace=wrap;overflow=hidden;rounded=0;" parent="1" vertex="1">
          <mxGeometry x="80" y="370" width="450" height="250" as="geometry" />
        </mxCell>
        <mxCell id="XB0kFff-WBzxuI54zyYx-6" value="&lt;h1&gt;CardRequest&lt;br&gt;&lt;/h1&gt;&lt;p&gt;1 giao dịch request tới 3rdGateway, 1 ScratchCard có thẻ có nhiều CardRequest&lt;br&gt;&lt;/p&gt;" style="text;html=1;strokeColor=none;fillColor=none;spacing=5;spacingTop=-20;whiteSpace=wrap;overflow=hidden;rounded=0;" parent="1" vertex="1">
          <mxGeometry x="1630" y="1310" width="190" height="120" as="geometry" />
        </mxCell>
        <mxCell id="XB0kFff-WBzxuI54zyYx-7" value="Validate Các thông tin thẻ cào" style="rounded=0;whiteSpace=wrap;html=1;" parent="1" vertex="1">
          <mxGeometry x="1100" y="1370" width="120" height="60" as="geometry" />
        </mxCell>
        <mxCell id="3bCc3TMQqqLkJ8yuEZmT-1" value="" style="edgeStyle=orthogonalEdgeStyle;rounded=0;orthogonalLoop=1;jettySize=auto;html=1;" parent="1" source="XB0kFff-WBzxuI54zyYx-8" target="XB0kFff-WBzxuI54zyYx-1" edge="1">
          <mxGeometry relative="1" as="geometry" />
        </mxCell>
        <mxCell id="XB0kFff-WBzxuI54zyYx-8" value="1. Nhận Giao dịch" style="text;html=1;strokeColor=none;fillColor=none;align=center;verticalAlign=middle;whiteSpace=wrap;rounded=0;" parent="1" vertex="1">
          <mxGeometry x="1130" y="1200" width="60" height="30" as="geometry" />
        </mxCell>
        <mxCell id="XB0kFff-WBzxuI54zyYx-11" value="2. Xử lý Enqueue" style="text;html=1;strokeColor=none;fillColor=none;align=center;verticalAlign=middle;whiteSpace=wrap;rounded=0;" parent="1" vertex="1">
          <mxGeometry x="90" y="1550" width="60" height="30" as="geometry" />
        </mxCell>
        <mxCell id="XB0kFff-WBzxuI54zyYx-14" style="edgeStyle=orthogonalEdgeStyle;rounded=0;orthogonalLoop=1;jettySize=auto;html=1;" parent="1" source="XB0kFff-WBzxuI54zyYx-12" target="XB0kFff-WBzxuI54zyYx-13" edge="1">
          <mxGeometry relative="1" as="geometry">
            <mxPoint x="230" y="1640" as="targetPoint" />
          </mxGeometry>
        </mxCell>
        <mxCell id="mhC-N5rveu6BRKXla0w9-20" style="edgeStyle=orthogonalEdgeStyle;rounded=0;orthogonalLoop=1;jettySize=auto;html=1;exitX=0;exitY=0;exitDx=0;exitDy=0;" edge="1" parent="1" source="XB0kFff-WBzxuI54zyYx-12">
          <mxGeometry relative="1" as="geometry">
            <mxPoint x="810" y="1360" as="targetPoint" />
          </mxGeometry>
        </mxCell>
        <mxCell id="XB0kFff-WBzxuI54zyYx-12" value="Lấy ScrachCard&amp;nbsp; trong queue ra ( FIFO)" style="rounded=1;whiteSpace=wrap;html=1;" parent="1" vertex="1">
          <mxGeometry x="70" y="1610" width="120" height="60" as="geometry" />
        </mxCell>
        <mxCell id="XB0kFff-WBzxuI54zyYx-17" value="" style="edgeStyle=orthogonalEdgeStyle;rounded=0;orthogonalLoop=1;jettySize=auto;html=1;" parent="1" source="XB0kFff-WBzxuI54zyYx-13" target="XB0kFff-WBzxuI54zyYx-16" edge="1">
          <mxGeometry relative="1" as="geometry" />
        </mxCell>
        <mxCell id="XB0kFff-WBzxuI54zyYx-13" value="Đọc Config trong DB để điều hướng " style="rounded=1;whiteSpace=wrap;html=1;" parent="1" vertex="1">
          <mxGeometry x="240" y="1610" width="120" height="60" as="geometry" />
        </mxCell>
        <mxCell id="XB0kFff-WBzxuI54zyYx-22" value="" style="edgeStyle=orthogonalEdgeStyle;rounded=0;orthogonalLoop=1;jettySize=auto;html=1;" parent="1" source="XB0kFff-WBzxuI54zyYx-16" target="XB0kFff-WBzxuI54zyYx-21" edge="1">
          <mxGeometry relative="1" as="geometry" />
        </mxCell>
        <mxCell id="XB0kFff-WBzxuI54zyYx-16" value="Thực Hiện Request sang 3rd Găteway" style="rounded=1;whiteSpace=wrap;html=1;" parent="1" vertex="1">
          <mxGeometry x="420" y="1610" width="120" height="60" as="geometry" />
        </mxCell>
        <mxCell id="XB0kFff-WBzxuI54zyYx-27" value="" style="edgeStyle=orthogonalEdgeStyle;rounded=0;orthogonalLoop=1;jettySize=auto;html=1;" parent="1" source="XB0kFff-WBzxuI54zyYx-21" target="XB0kFff-WBzxuI54zyYx-26" edge="1">
          <mxGeometry relative="1" as="geometry" />
        </mxCell>
        <mxCell id="XB0kFff-WBzxuI54zyYx-29" value="" style="edgeStyle=orthogonalEdgeStyle;rounded=0;orthogonalLoop=1;jettySize=auto;html=1;" parent="1" source="XB0kFff-WBzxuI54zyYx-21" target="XB0kFff-WBzxuI54zyYx-28" edge="1">
          <mxGeometry relative="1" as="geometry" />
        </mxCell>
        <mxCell id="XB0kFff-WBzxuI54zyYx-30" value="&lt;div&gt;Thất bại&amp;nbsp; ( timeout, Gateway Closed)&lt;/div&gt;&lt;div&gt;&lt;br&gt;&lt;/div&gt;" style="edgeLabel;html=1;align=center;verticalAlign=middle;resizable=0;points=[];" parent="XB0kFff-WBzxuI54zyYx-29" vertex="1" connectable="0">
          <mxGeometry x="-0.52" y="-2" relative="1" as="geometry">
            <mxPoint x="-70" y="12" as="offset" />
          </mxGeometry>
        </mxCell>
        <mxCell id="XB0kFff-WBzxuI54zyYx-21" value="Gọi thành công" style="rhombus;whiteSpace=wrap;html=1;rounded=1;" parent="1" vertex="1">
          <mxGeometry x="440" y="1740" width="80" height="80" as="geometry" />
        </mxCell>
        <mxCell id="XB0kFff-WBzxuI54zyYx-26" value="" style="rounded=1;whiteSpace=wrap;html=1;" parent="1" vertex="1">
          <mxGeometry x="580" y="1750" width="120" height="60" as="geometry" />
        </mxCell>
        <mxCell id="XB0kFff-WBzxuI54zyYx-28" value="" style="shape=waypoint;sketch=0;size=6;pointerEvents=1;points=[];fillColor=default;resizable=0;rotatable=0;perimeter=centerPerimeter;snapToPoint=1;rounded=1;" parent="1" vertex="1">
          <mxGeometry x="290" y="1660" width="20" height="20" as="geometry" />
        </mxCell>
        <mxCell id="XB0kFff-WBzxuI54zyYx-31" value="Lưu CardRequest và Update ScratchCard " style="rounded=1;whiteSpace=wrap;html=1;" parent="1" vertex="1">
          <mxGeometry x="580" y="1750" width="120" height="60" as="geometry" />
        </mxCell>
        <mxCell id="t99A4bFoEA9lwXHTiNUI-1" value="Chuyển Tiền vào Tài Khoản" style="text;html=1;align=center;verticalAlign=middle;resizable=0;points=[];autosize=1;strokeColor=none;fillColor=none;" parent="1" vertex="1">
          <mxGeometry x="275" y="175" width="170" height="30" as="geometry" />
        </mxCell>
        <mxCell id="mhC-N5rveu6BRKXla0w9-1" value="CTT" style="shape=umlLifeline;perimeter=lifelinePerimeter;whiteSpace=wrap;html=1;container=0;dropTarget=0;collapsible=0;recursiveResize=0;outlineConnect=0;portConstraint=eastwest;newEdgeStyle={&quot;edgeStyle&quot;:&quot;elbowEdgeStyle&quot;,&quot;elbow&quot;:&quot;vertical&quot;,&quot;curved&quot;:0,&quot;rounded&quot;:0};" vertex="1" parent="1">
          <mxGeometry x="430" y="30" width="100" height="300" as="geometry" />
        </mxCell>
        <mxCell id="mhC-N5rveu6BRKXla0w9-2" value="" style="html=1;points=[];perimeter=orthogonalPerimeter;outlineConnect=0;targetShapes=umlLifeline;portConstraint=eastwest;newEdgeStyle={&quot;edgeStyle&quot;:&quot;elbowEdgeStyle&quot;,&quot;elbow&quot;:&quot;vertical&quot;,&quot;curved&quot;:0,&quot;rounded&quot;:0};" vertex="1" parent="mhC-N5rveu6BRKXla0w9-1">
          <mxGeometry x="45" y="80" width="10" height="190" as="geometry" />
        </mxCell>
        <mxCell id="mhC-N5rveu6BRKXla0w9-15" value="Lưu DB" style="html=1;points=[[0,0,0,0,5],[0,1,0,0,-5],[1,0,0,0,5],[1,1,0,0,-5]];perimeter=orthogonalPerimeter;outlineConnect=0;targetShapes=umlLifeline;portConstraint=eastwest;newEdgeStyle={&quot;curved&quot;:0,&quot;rounded&quot;:0};" vertex="1" parent="mhC-N5rveu6BRKXla0w9-1">
          <mxGeometry x="55" y="190" width="15" height="60" as="geometry" />
        </mxCell>
        <mxCell id="mhC-N5rveu6BRKXla0w9-4" value="Tạo Yêu cầu Nạp Tiền" style="html=1;verticalAlign=bottom;endArrow=block;edgeStyle=elbowEdgeStyle;elbow=vertical;curved=0;rounded=0;" edge="1" parent="1" target="mhC-N5rveu6BRKXla0w9-2">
          <mxGeometry relative="1" as="geometry">
            <mxPoint x="280" y="120" as="sourcePoint" />
            <Array as="points">
              <mxPoint x="365" y="120" />
            </Array>
            <mxPoint x="450" y="120" as="targetPoint" />
          </mxGeometry>
        </mxCell>
        <mxCell id="mhC-N5rveu6BRKXla0w9-5" value="Trả về thông tin tài khoản" style="html=1;verticalAlign=bottom;endArrow=block;edgeStyle=elbowEdgeStyle;elbow=vertical;curved=0;rounded=0;" edge="1" parent="1">
          <mxGeometry x="0.1566" relative="1" as="geometry">
            <mxPoint x="470" y="150" as="sourcePoint" />
            <Array as="points">
              <mxPoint x="287.5" y="150" />
            </Array>
            <mxPoint x="272.5" y="150" as="targetPoint" />
            <mxPoint as="offset" />
          </mxGeometry>
        </mxCell>
        <mxCell id="mhC-N5rveu6BRKXla0w9-7" value="Hiện thị thông tin tk để CK" style="html=1;verticalAlign=bottom;endArrow=block;edgeStyle=elbowEdgeStyle;elbow=vertical;curved=0;rounded=0;" edge="1" parent="1">
          <mxGeometry x="0.1566" relative="1" as="geometry">
            <mxPoint x="260" y="150" as="sourcePoint" />
            <Array as="points">
              <mxPoint x="105" y="150" />
            </Array>
            <mxPoint x="90" y="150" as="targetPoint" />
            <mxPoint as="offset" />
          </mxGeometry>
        </mxCell>
        <mxCell id="mhC-N5rveu6BRKXla0w9-9" value="" style="html=1;verticalAlign=bottom;endArrow=block;edgeStyle=elbowEdgeStyle;elbow=vertical;curved=0;rounded=0;" edge="1" parent="1" target="JliSDwymSqfBBgYboHcV-1">
          <mxGeometry x="-0.7116" y="30" relative="1" as="geometry">
            <mxPoint x="100" y="200" as="sourcePoint" />
            <Array as="points">
              <mxPoint x="185" y="200" />
            </Array>
            <mxPoint x="270" y="200" as="targetPoint" />
            <mxPoint as="offset" />
          </mxGeometry>
        </mxCell>
        <mxCell id="mhC-N5rveu6BRKXla0w9-16" value="Callback Khi có Lệnh nạp" style="html=1;verticalAlign=bottom;endArrow=block;edgeStyle=elbowEdgeStyle;elbow=vertical;curved=0;rounded=0;" edge="1" parent="1" source="JliSDwymSqfBBgYboHcV-1">
          <mxGeometry x="0.1557" y="-10" relative="1" as="geometry">
            <mxPoint x="697.5" y="240" as="sourcePoint" />
            <Array as="points">
              <mxPoint x="515" y="240" />
            </Array>
            <mxPoint x="500" y="240" as="targetPoint" />
            <mxPoint x="1" as="offset" />
          </mxGeometry>
        </mxCell>
        <mxCell id="mhC-N5rveu6BRKXla0w9-17" value="Callback báo lệnh nạp" style="html=1;verticalAlign=bottom;endArrow=block;edgeStyle=elbowEdgeStyle;elbow=vertical;curved=0;rounded=0;" edge="1" parent="1" source="mhC-N5rveu6BRKXla0w9-15">
          <mxGeometry y="-10" relative="1" as="geometry">
            <mxPoint x="472.5" y="260" as="sourcePoint" />
            <Array as="points">
              <mxPoint x="290" y="260" />
            </Array>
            <mxPoint x="275" y="260" as="targetPoint" />
            <mxPoint as="offset" />
          </mxGeometry>
        </mxCell>
        <mxCell id="mhC-N5rveu6BRKXla0w9-19" value="Cộng Tiền, thông báo cho user " style="html=1;verticalAlign=bottom;endArrow=block;edgeStyle=elbowEdgeStyle;elbow=vertical;curved=0;rounded=0;" edge="1" parent="1" source="aM9ryv3xv72pqoxQDRHE-6">
          <mxGeometry x="-0.1429" y="-20" relative="1" as="geometry">
            <mxPoint x="260" y="260" as="sourcePoint" />
            <Array as="points">
              <mxPoint x="105" y="260" />
            </Array>
            <mxPoint x="90" y="260" as="targetPoint" />
            <mxPoint as="offset" />
          </mxGeometry>
        </mxCell>
        <mxCell id="mhC-N5rveu6BRKXla0w9-21" value="User" style="shape=umlLifeline;perimeter=lifelinePerimeter;whiteSpace=wrap;html=1;container=0;dropTarget=0;collapsible=0;recursiveResize=0;outlineConnect=0;portConstraint=eastwest;newEdgeStyle={&quot;edgeStyle&quot;:&quot;elbowEdgeStyle&quot;,&quot;elbow&quot;:&quot;vertical&quot;,&quot;curved&quot;:0,&quot;rounded&quot;:0};" vertex="1" parent="1">
          <mxGeometry x="50" y="630" width="100" height="300" as="geometry" />
        </mxCell>
        <mxCell id="mhC-N5rveu6BRKXla0w9-22" value="" style="html=1;points=[];perimeter=orthogonalPerimeter;outlineConnect=0;targetShapes=umlLifeline;portConstraint=eastwest;newEdgeStyle={&quot;edgeStyle&quot;:&quot;elbowEdgeStyle&quot;,&quot;elbow&quot;:&quot;vertical&quot;,&quot;curved&quot;:0,&quot;rounded&quot;:0};" vertex="1" parent="mhC-N5rveu6BRKXla0w9-21">
          <mxGeometry x="45" y="70" width="10" height="190" as="geometry" />
        </mxCell>
        <mxCell id="mhC-N5rveu6BRKXla0w9-23" value="Partner" style="shape=umlLifeline;perimeter=lifelinePerimeter;whiteSpace=wrap;html=1;container=0;dropTarget=0;collapsible=0;recursiveResize=0;outlineConnect=0;portConstraint=eastwest;newEdgeStyle={&quot;edgeStyle&quot;:&quot;elbowEdgeStyle&quot;,&quot;elbow&quot;:&quot;vertical&quot;,&quot;curved&quot;:0,&quot;rounded&quot;:0};" vertex="1" parent="1">
          <mxGeometry x="230" y="630" width="100" height="300" as="geometry" />
        </mxCell>
        <mxCell id="mhC-N5rveu6BRKXla0w9-24" value="" style="html=1;points=[];perimeter=orthogonalPerimeter;outlineConnect=0;targetShapes=umlLifeline;portConstraint=eastwest;newEdgeStyle={&quot;edgeStyle&quot;:&quot;elbowEdgeStyle&quot;,&quot;elbow&quot;:&quot;vertical&quot;,&quot;curved&quot;:0,&quot;rounded&quot;:0};" vertex="1" parent="mhC-N5rveu6BRKXla0w9-23">
          <mxGeometry x="45" y="80" width="10" height="170" as="geometry" />
        </mxCell>
        <mxCell id="mhC-N5rveu6BRKXla0w9-25" value="Cần Rút Tiền&lt;span style=&quot;white-space: pre;&quot;&gt;&#x9;&lt;/span&gt;" style="html=1;verticalAlign=bottom;endArrow=block;edgeStyle=elbowEdgeStyle;elbow=horizontal;curved=0;rounded=0;" edge="1" parent="1" source="mhC-N5rveu6BRKXla0w9-22" target="mhC-N5rveu6BRKXla0w9-24">
          <mxGeometry relative="1" as="geometry">
            <mxPoint x="205" y="720" as="sourcePoint" />
            <Array as="points">
              <mxPoint x="190" y="710" />
            </Array>
          </mxGeometry>
        </mxCell>
        <mxCell id="mhC-N5rveu6BRKXla0w9-26" value="Perfect Money, WMZ,Tron Wallet" style="shape=umlLifeline;perimeter=lifelinePerimeter;whiteSpace=wrap;html=1;container=0;dropTarget=0;collapsible=0;recursiveResize=0;outlineConnect=0;portConstraint=eastwest;newEdgeStyle={&quot;edgeStyle&quot;:&quot;elbowEdgeStyle&quot;,&quot;elbow&quot;:&quot;vertical&quot;,&quot;curved&quot;:0,&quot;rounded&quot;:0};" vertex="1" parent="1">
          <mxGeometry x="650" y="630" width="100" height="300" as="geometry" />
        </mxCell>
        <mxCell id="mhC-N5rveu6BRKXla0w9-27" value="" style="html=1;points=[];perimeter=orthogonalPerimeter;outlineConnect=0;targetShapes=umlLifeline;portConstraint=eastwest;newEdgeStyle={&quot;edgeStyle&quot;:&quot;elbowEdgeStyle&quot;,&quot;elbow&quot;:&quot;vertical&quot;,&quot;curved&quot;:0,&quot;rounded&quot;:0};" vertex="1" parent="mhC-N5rveu6BRKXla0w9-26">
          <mxGeometry x="45" y="80" width="10" height="170" as="geometry" />
        </mxCell>
        <mxCell id="mhC-N5rveu6BRKXla0w9-28" value="&lt;h1&gt;Flow Rút Tiền Ra Khỏi Hệ Thống ( OUT ) &lt;br&gt;&lt;/h1&gt;&lt;div&gt;1.Người dùng sẽ nhập các thông tin tk của người dùng &lt;br&gt;&lt;/div&gt;&lt;div&gt;2. Đối tác verify và thực hiện gửi lệnh rút tiền tới&amp;nbsp; CTT &lt;br&gt;&lt;/div&gt;&lt;div&gt;3.CTT thực hiện lệnh rút tiền thủ công hoặc tự động ( tùy vào kênh thanh toán)&lt;br&gt;&lt;/div&gt;&lt;div&gt;4.CTT Thực hiện rút tiền thành công&amp;nbsp; , thông báo lại cho Partnet , Partner thông báo cho User&lt;br&gt;&lt;/div&gt;" style="text;html=1;strokeColor=none;fillColor=none;spacing=5;spacingTop=-20;whiteSpace=wrap;overflow=hidden;rounded=0;" vertex="1" parent="1">
          <mxGeometry x="90" y="960" width="450" height="250" as="geometry" />
        </mxCell>
        <mxCell id="mhC-N5rveu6BRKXla0w9-30" value="CTT" style="shape=umlLifeline;perimeter=lifelinePerimeter;whiteSpace=wrap;html=1;container=0;dropTarget=0;collapsible=0;recursiveResize=0;outlineConnect=0;portConstraint=eastwest;newEdgeStyle={&quot;edgeStyle&quot;:&quot;elbowEdgeStyle&quot;,&quot;elbow&quot;:&quot;vertical&quot;,&quot;curved&quot;:0,&quot;rounded&quot;:0};" vertex="1" parent="1">
          <mxGeometry x="440" y="630" width="100" height="300" as="geometry" />
        </mxCell>
        <mxCell id="mhC-N5rveu6BRKXla0w9-31" value="" style="html=1;points=[];perimeter=orthogonalPerimeter;outlineConnect=0;targetShapes=umlLifeline;portConstraint=eastwest;newEdgeStyle={&quot;edgeStyle&quot;:&quot;elbowEdgeStyle&quot;,&quot;elbow&quot;:&quot;vertical&quot;,&quot;curved&quot;:0,&quot;rounded&quot;:0};" vertex="1" parent="mhC-N5rveu6BRKXla0w9-30">
          <mxGeometry x="45" y="80" width="10" height="190" as="geometry" />
        </mxCell>
        <mxCell id="mhC-N5rveu6BRKXla0w9-32" value="Chọn TK Phù hợp" style="html=1;points=[[0,0,0,0,5],[0,1,0,0,-5],[1,0,0,0,5],[1,1,0,0,-5]];perimeter=orthogonalPerimeter;outlineConnect=0;targetShapes=umlLifeline;portConstraint=eastwest;newEdgeStyle={&quot;curved&quot;:0,&quot;rounded&quot;:0};" vertex="1" parent="mhC-N5rveu6BRKXla0w9-30">
          <mxGeometry x="55" y="90" width="15" height="60" as="geometry" />
        </mxCell>
        <mxCell id="mhC-N5rveu6BRKXla0w9-33" value="Tạo Yêu cầu Rút Tiền Đến STK của User" style="html=1;verticalAlign=bottom;endArrow=block;edgeStyle=elbowEdgeStyle;elbow=vertical;curved=0;rounded=0;" edge="1" parent="1" target="mhC-N5rveu6BRKXla0w9-31">
          <mxGeometry relative="1" as="geometry">
            <mxPoint x="290" y="710" as="sourcePoint" />
            <Array as="points">
              <mxPoint x="375" y="710" />
            </Array>
            <mxPoint x="460" y="710" as="targetPoint" />
          </mxGeometry>
        </mxCell>
        <mxCell id="mhC-N5rveu6BRKXla0w9-36" value="" style="html=1;verticalAlign=bottom;endArrow=block;edgeStyle=elbowEdgeStyle;elbow=vertical;curved=0;rounded=0;" edge="1" parent="1" target="mhC-N5rveu6BRKXla0w9-26" source="mhC-N5rveu6BRKXla0w9-32">
          <mxGeometry x="-0.7116" y="30" relative="1" as="geometry">
            <mxPoint x="200" y="770" as="sourcePoint" />
            <Array as="points">
              <mxPoint x="610" y="760" />
              <mxPoint x="195" y="790" />
            </Array>
            <mxPoint x="280" y="790" as="targetPoint" />
            <mxPoint as="offset" />
          </mxGeometry>
        </mxCell>
        <mxCell id="mhC-N5rveu6BRKXla0w9-40" value="Thực HIện Rút Tiền" style="edgeLabel;html=1;align=center;verticalAlign=middle;resizable=0;points=[];" vertex="1" connectable="0" parent="mhC-N5rveu6BRKXla0w9-36">
          <mxGeometry x="0.1293" y="-1" relative="1" as="geometry">
            <mxPoint x="3" y="-21" as="offset" />
          </mxGeometry>
        </mxCell>
        <mxCell id="mhC-N5rveu6BRKXla0w9-37" value="Thực hiện CK Thành Công" style="html=1;verticalAlign=bottom;endArrow=block;edgeStyle=elbowEdgeStyle;elbow=vertical;curved=0;rounded=0;" edge="1" parent="1">
          <mxGeometry x="0.1557" y="-10" relative="1" as="geometry">
            <mxPoint x="689.5" y="795" as="sourcePoint" />
            <Array as="points">
              <mxPoint x="515" y="795" />
            </Array>
            <mxPoint x="500" y="795" as="targetPoint" />
            <mxPoint x="1" as="offset" />
          </mxGeometry>
        </mxCell>
        <mxCell id="mhC-N5rveu6BRKXla0w9-38" value="Thông báo cho đối tác" style="html=1;verticalAlign=bottom;endArrow=block;edgeStyle=elbowEdgeStyle;elbow=vertical;curved=0;rounded=0;" edge="1" parent="1">
          <mxGeometry x="0.2" y="-10" relative="1" as="geometry">
            <mxPoint x="492.5" y="730" as="sourcePoint" />
            <Array as="points">
              <mxPoint x="290" y="800" />
            </Array>
            <mxPoint x="275" y="800" as="targetPoint" />
            <mxPoint x="1" as="offset" />
          </mxGeometry>
        </mxCell>
        <mxCell id="mhC-N5rveu6BRKXla0w9-39" value="Thông báo cho User" style="html=1;verticalAlign=bottom;endArrow=block;edgeStyle=elbowEdgeStyle;elbow=vertical;curved=0;rounded=0;" edge="1" parent="1">
          <mxGeometry x="-0.1429" y="-10" relative="1" as="geometry">
            <mxPoint x="275" y="800" as="sourcePoint" />
            <Array as="points">
              <mxPoint x="115" y="800" />
            </Array>
            <mxPoint x="100" y="800" as="targetPoint" />
            <mxPoint as="offset" />
          </mxGeometry>
        </mxCell>
      </root>
    </mxGraphModel>
  </diagram>
</mxfile>
